<?xml version="1.0" standalone="no"?>
<!DOCTYPE svg PUBLIC "-//W3C//DTD SVG 20010904//EN"
 "http://www.w3.org/TR/2001/REC-SVG-20010904/DTD/svg10.dtd">
<svg version="1.0" xmlns="http://www.w3.org/2000/svg"
 width="700.000000pt" height="700.000000pt" viewBox="0 0 700.000000 700.000000"
 preserveAspectRatio="xMidYMid meet">
<metadata>
Created by potrace 1.11, written by Peter Selinger 2001-2013
</metadata>
<g transform="translate(0.000000,700.000000) scale(0.100000,-0.100000)"
fill="#000000" stroke="none">
<path d="M2797 5408 l-597 -603 92 -92 c51 -51 96 -93 100 -93 5 0 223 216
485 480 262 264 479 477 482 475 2 -3 5 -1016 5 -2251 l1 -2246 60 -24 c33
-13 69 -28 80 -34 11 -5 36 -16 56 -23 l36 -15 606 607 605 606 -2 97 -1 98
-555 555 -555 555 555 555 555 555 1 98 1 97 -601 603 c-330 331 -605 602
-609 602 -5 0 -29 -20 -53 -46 l-44 -45 -44 45 c-24 26 -48 46 -52 46 -5 0
-278 -271 -607 -602z m1283 -263 l435 -435 -435 -435 c-239 -239 -436 -432
-439 -430 -6 7 -7 1735 -1 1735 3 0 201 -196 440 -435z m0 -3290 c-239 -239
-437 -435 -440 -435 -4 0 -5 1717 -1 1740 1 3 198 -192 438 -432 l438 -438
-435 -435z"/>
</g>
</svg>
